<?xml version="1.0" encoding="UTF-8"?>
<svg width="1200pt" height="1200pt" version="1.1" viewBox="0 0 1200 1200" xmlns="http://www.w3.org/2000/svg">
 <path d="m1003.2 426-590.4-364.8c-64.801-39.598-141.6-42-207.6-4.8008-66 37.199-105.6 103.2-105.6 178.8v729.6c0 75.602 39.602 141.6 105.6 178.8 31.199 18 66 26.398 99.602 26.398 37.199 0 74.398-10.801 108-31.199l590.4-364.8c61.199-37.199 97.199-103.2 97.199-174s-37.199-136.8-97.199-174zm-74.398 228-591.6 364.8c-28.801 18-54 7.1992-63.602 1.1992-9.6016-6-32.398-21.602-32.398-55.199v-729.6c0-33.602 22.801-49.199 32.398-55.199 6-3.6016 16.801-8.3984 31.199-8.3984 9.6016 0 20.398 2.3984 32.398 9.6016l590.4 364.8c26.398 16.801 30 43.199 30 54 0.007812 10.797-2.3945 37.195-28.793 53.996z" fill="#d8d1e8"/>
</svg>
