<?xml version="1.0" encoding="UTF-8"?>
<svg width="1200pt" height="1200pt" version="1.1" viewBox="0 0 1200 1200" xmlns="http://www.w3.org/2000/svg">
 <path d="m525 187.5v825c-0.03125 29.828-11.895 58.422-32.988 79.512-21.09 21.094-49.684 32.957-79.512 32.988h-75c-29.828-0.03125-58.422-11.895-79.512-32.988-21.094-21.09-32.957-49.684-32.988-79.512v-825c0.03125-29.828 11.895-58.422 32.988-79.512 21.09-21.094 49.684-32.957 79.512-32.988h75c29.828 0.03125 58.422 11.895 79.512 32.988 21.094 21.09 32.957 49.684 32.988 79.512zm337.5-112.5h-75c-29.828 0.03125-58.422 11.895-79.512 32.988-21.094 21.09-32.957 49.684-32.988 79.512v825c0.03125 29.828 11.895 58.422 32.988 79.512 21.09 21.094 49.684 32.957 79.512 32.988h75c29.828-0.03125 58.422-11.895 79.512-32.988 21.094-21.09 32.957-49.684 32.988-79.512v-825c-0.03125-29.828-11.895-58.422-32.988-79.512-21.09-21.094-49.684-32.957-79.512-32.988z" fill="#d8d1e8"/>
</svg>
