<?xml version="1.0" encoding="UTF-8"?>
<svg width="1200pt" height="1200pt" version="1.1" viewBox="0 0 1200 1200" xmlns="http://www.w3.org/2000/svg">
 <path d="m112.5 675c9.9453 0 19.484-3.9492 26.516-10.984 7.0352-7.0312 10.984-16.57 10.984-26.516v-150c0.046875-39.77 15.863-77.895 43.984-106.02s66.246-43.938 106.02-43.984h562.5v42.426c-0.003906 18.188 6.6055 35.754 18.59 49.434 11.988 13.68 28.539 22.535 46.566 24.922 18.031 2.3867 36.312-1.8633 51.445-11.953l119.9-79.926c20.863-13.91 33.398-37.324 33.398-62.402s-12.535-48.492-33.398-62.402l-119.88-79.926c-15.133-10.094-33.418-14.34-51.449-11.957-18.035 2.3867-34.586 11.242-46.574 24.922-11.988 13.68-18.598 31.25-18.598 49.438v42.426h-562.5c-59.652 0.066406-116.84 23.793-159.03 65.973-42.18 42.184-65.906 99.375-65.973 159.03v150c0 9.9453 3.9492 19.484 10.984 26.516 7.0312 7.0352 16.57 10.984 26.516 10.984zm944.9-375-119.88 80.164-0.019531-160.09zm30.102 225c-9.9453 0-19.484 3.9492-26.516 10.984-7.0352 7.0312-10.984 16.57-10.984 26.516v150c-0.046875 39.77-15.863 77.895-43.984 106.02s-66.246 43.938-106.02 43.984h-562.5v-42.426c0.003906-18.188-6.6055-35.754-18.59-49.434-11.988-13.68-28.539-22.535-46.566-24.922-18.031-2.3867-36.312 1.8633-51.445 11.953l-119.9 79.926c-20.863 13.91-33.398 37.324-33.398 62.402s12.535 48.492 33.398 62.402l119.88 79.926c15.133 10.094 33.418 14.34 51.449 11.957 18.035-2.3867 34.586-11.242 46.574-24.922 11.988-13.68 18.598-31.25 18.598-49.438v-42.426h562.5c59.652-0.066406 116.84-23.793 159.03-65.973 42.18-42.184 65.906-99.375 65.973-159.03v-150c0-9.9453-3.9492-19.484-10.984-26.516-7.0312-7.0352-16.57-10.984-26.516-10.984zm-944.9 375 119.88-80.164 0.019531 160.09z" fill="#d8d1e8"/>
</svg>
