<?xml version="1.0" encoding="UTF-8"?>
<svg viewBox="0 0 1200 1200" xmlns="http://www.w3.org/2000/svg">
 <rect x="-120" y="-120" width="1440" height="1440" fill="#d8d1e8"/>
 <path d="m600 348.1c-138.86 0-251.91 113.04-251.91 251.91 0 138.86 113.04 251.91 251.91 251.91s251.91-113.04 251.91-251.91c0-138.86-113.04-251.91-251.91-251.91zm0 472.32c-121.54 0-220.42-98.871-220.42-220.42 0-121.54 98.871-220.42 220.42-220.42 121.54 0 220.42 98.871 220.42 220.42s-98.871 220.42-220.42 220.42z" fill="#600a68"/>
 <path d="m693.68 585.99-141.7-70.848c-7.7148-3.9375-17.16-0.78906-21.098 7.0859-1.1016 2.2031-1.7305 4.5664-1.7305 7.0859v141.7c0 8.6602 7.0859 15.742 15.742 15.742 2.3633 0 4.8789-0.62891 7.0859-1.7305l141.7-70.848c7.7148-3.9375 10.863-13.383 7.0859-21.098-1.5781-3.1484-4.0938-5.668-7.0859-7.0859zm-133.04 59.355v-90.688l90.688 45.344z" fill="#600a68"/>
</svg>
