<?xml version="1.0" encoding="UTF-8"?>
<svg viewBox="0 0 1200 1200" xmlns="http://www.w3.org/2000/svg">
 <rect x="-120" y="-120" width="1440" height="1440" fill="#d8d1e8"/>
 <path d="m363.84 901.11h472.32c35.777 0 64.945-29.168 64.945-64.945v-472.32c0-35.777-29.168-64.945-64.945-64.945h-472.32c-35.777 0-64.945 29.168-64.945 64.945v472.32c0 35.777 29.168 64.945 64.945 64.945zm-29.52-537.27c0-16.293 13.227-29.52 29.52-29.52h472.32c16.293 0 29.52 13.227 29.52 29.52v472.32c0 16.293-13.227 29.52-29.52 29.52h-472.32c-16.293 0-29.52-13.227-29.52-29.52z" fill="#600a68"/>
 <path d="m529.15 735.8c29.285 0 53.137-23.852 53.137-53.137v-165.31c0-29.285-23.852-53.137-53.137-53.137s-53.137 23.852-53.137 53.137v165.31c0 29.285 23.852 53.137 53.137 53.137zm-17.711-218.45c0-9.8008 7.9102-17.711 17.711-17.711 9.8008 0 17.711 7.9102 17.711 17.711v165.31c0 9.8008-7.9102 17.711-17.711 17.711-9.8008 0-17.711-7.9102-17.711-17.711z" fill="#600a68"/>
 <path d="m670.85 735.8c29.285 0 53.137-23.852 53.137-53.137v-165.31c0-29.285-23.852-53.137-53.137-53.137-29.285 0-53.137 23.852-53.137 53.137v165.31c0 29.285 23.852 53.137 53.137 53.137zm-17.711-218.45c0-9.8008 7.9102-17.711 17.711-17.711 9.8008 0 17.711 7.9102 17.711 17.711v165.31c0 9.8008-7.9102 17.711-17.711 17.711-9.8008 0-17.711-7.9102-17.711-17.711z" fill="#600a68"/>
</svg>
