<?xml version="1.0" encoding="UTF-8"?>
<svg viewBox="0 0 1200 1200" xmlns="http://www.w3.org/2000/svg">
 <rect x="-120" y="-120" width="1440" height="1440" fill="#d8d1e8"/>
 <path d="m816.48 583.94c0-0.94531-0.15625-1.8906-0.31641-2.832 0-0.15625 0-0.31641-0.15625-0.31641-0.15625-0.78906-0.47266-1.5742-0.78906-2.2031-0.15625-0.31641-0.15625-0.62891-0.31641-0.78906-0.31641-0.62891-0.62891-1.1016-0.94531-1.7305-0.15625-0.15625-0.31641-0.47266-0.47266-0.62891-0.47266-0.78906-1.1016-1.418-1.7305-2.0469l-66.281-66.281 0.003906-143.27c0-8.6602-7.0859-15.742-15.742-15.742h-330.62c-8.6602 0-15.742 7.0859-15.742 15.742v425.09c0 8.6602 7.0859 15.742 15.742 15.742h62.977v31.488c0 8.6602 7.0859 15.742 15.742 15.742h322.75c8.6602 0 15.742-7.0859 15.742-15.742v-251.9c0.15625-0.15625 0.15625-0.15625 0.15625-0.31641zm-141.7-103.44 88.008 88.008h-88.008zm-259.78 292.68v-393.6h299.14v95.883l-43.926-43.926c-0.62891-0.62891-1.418-1.2578-2.0469-1.7305-0.15625-0.15625-0.47266-0.31641-0.78906-0.47266-0.62891-0.31641-1.1016-0.62891-1.7305-0.94531l-0.78906-0.31641c-0.78906-0.31641-1.418-0.47266-2.2031-0.62891l-0.31641-0.15625c-0.94531-0.15625-1.8906-0.31641-2.832-0.31641h-181.37c-8.6602 0-15.742 7.0859-15.742 15.742v330.62h-47.391zm78.723 47.23v-362.11h149.57v125.95c0 8.6602 7.0859 15.742 15.742 15.742h125.95v220.42z" fill="#600a68"/>
 <path d="m729.89 659.83h-181.05c-8.6602 0-15.742 7.0859-15.742 15.742 0 8.6602 7.0859 15.742 15.742 15.742h181.05c8.6602 0 15.742-7.0859 15.742-15.742s-7.082-15.742-15.742-15.742z" fill="#600a68"/>
 <path d="m674.79 730.68h-125.95c-8.6602 0-15.742 7.0859-15.742 15.742 0 8.6602 7.0859 15.742 15.742 15.742h125.95c8.6602 0 15.742-7.0859 15.742-15.742 0.003906-8.6562-7.082-15.742-15.742-15.742z" fill="#600a68"/>
</svg>
