<?xml version="1.0" encoding="UTF-8"?>
<svg viewBox="0 0 1200 1200" xmlns="http://www.w3.org/2000/svg">
 <defs>
  <clipPath id="a">
   <path d="m222.14 259h755.71v682h-755.71z"/>
  </clipPath>
 </defs>
 <rect x="-120" y="-120" width="1440" height="1440" fill="#d8d1e8"/>
 <g clip-path="url(#a)">
  <path d="m562.21 259.93c87.414 0 169.66 33.18 232.08 91.496l8.3867 8.1094-53.438 53.438c-49.309-49.309-115.89-77.473-187.03-77.473-146.08 0-264.5 118.42-264.5 264.5 0 146.08 118.42 264.5 264.5 264.5 140.63 0 255.62-109.75 264.01-248.27l-10.578 10.488c-14.758 14.758-38.68 14.758-53.438 0-13.621-13.621-14.668-35.055-3.1406-49.875l3.1406-3.5625 75.57-75.57c6.8125-6.8086 15.574-10.477 24.488-11h4.4609c7.4297 0.4375 14.754 3.0547 20.93 7.8594l3.5586 3.1406 75.574 75.57c14.754 14.758 14.754 38.684 0 53.438-13.621 13.621-35.055 14.672-49.879 3.1445l-3.5586-3.1445-11.406-11.383c-8.0195 180.7-157.05 324.74-339.73 324.74-187.82 0-340.07-152.26-340.07-340.07s152.25-340.07 340.07-340.07z" fill="#600a68"/>
 </g>
</svg>
